<svg xmlns="http://www.w3.org/2000/svg" width="225" height="225" viewBox="0 0 225 225">
  <defs>
    <style>
      .cls-1, .cls-2 {
        fill: #020202;
      }

      .cls-2 {
        fill-rule: evenodd;
      }
    </style>
  </defs>
  <circle class="cls-1" cx="70.5" cy="45.5" r="8.5"/>
  <circle id="Ellipse_1_copy" data-name="Ellipse 1 copy" class="cls-1" cx="70.5" cy="91.5" r="8.5"/>
  <circle id="Ellipse_1_copy_2" data-name="Ellipse 1 copy 2" class="cls-1" cx="28.5" cy="112.5" r="8.5"/>
  <circle id="Ellipse_1_copy_3" data-name="Ellipse 1 copy 3" class="cls-1" cx="53.5" cy="172.5" r="8.5"/>
  <circle id="Ellipse_1_copy_4" data-name="Ellipse 1 copy 4" class="cls-1" cx="112.5" cy="155.5" r="8.5"/>
  <circle id="Ellipse_1_copy_5" data-name="Ellipse 1 copy 5" class="cls-1" cx="150.5" cy="180.5" r="8.5"/>
  <circle id="Ellipse_1_copy_6" data-name="Ellipse 1 copy 6" class="cls-1" cx="159.5" cy="138.5" r="8.5"/>
  <circle id="Ellipse_1_copy_7" data-name="Ellipse 1 copy 7" class="cls-1" cx="196.5" cy="112.5" r="8.5"/>
  <circle id="Ellipse_1_copy_8" data-name="Ellipse 1 copy 8" class="cls-1" cx="168.5" cy="54.5" r="8.5"/>
  <circle id="Ellipse_1_copy_9" data-name="Ellipse 1 copy 9" class="cls-1" cx="112.5" cy="63.5" r="8.5"/>
  <path class="cls-2" d="M57.333,165.373l-0.667-.746,38-34,0.667,0.746Z"/>
  <path class="cls-2" d="M87.009,114.5l-0.019,1-53-1,0.019-1Z"/>
  <path class="cls-2" d="M75.646,96.354l0.707-.707,11,11-0.707.708Z"/>
  <path class="cls-2" d="M98.429,92.743l-0.857.514-24-40,0.857-.514Z"/>
  <path class="cls-2" d="M108.5,72.024l1-.048,1,21-1,.048Z"/>
  <path class="cls-2" d="M163.667,62.627l0.666,0.746-37,33-0.666-.746Z"/>
  <path class="cls-2" d="M187.991,113.5l0.018,1-57,1-0.018-1Z"/>
  <path class="cls-2" d="M150.245,132.564l-0.49.872-16-9,0.49-.872Z"/>
  <path class="cls-2" d="M145.416,170.723l-0.832.554-24-36,0.832-.554Z"/>
  <path class="cls-2" d="M110,147h-1V136h1v11Z"/>
  <path class="cls-2" d="M96,106l11,5v15l-12-5Z"/>
  <path class="cls-2" d="M112,111l12-5v14l-11,5Z"/>
  <path class="cls-2" d="M110,107l10-4-11-2-10,3Z"/>
</svg>
