<?xml version="1.0" standalone="no"?>
<!DOCTYPE svg PUBLIC "-//W3C//DTD SVG 20010904//EN"
 "http://www.w3.org/TR/2001/REC-SVG-20010904/DTD/svg10.dtd">
<svg version="1.0" xmlns="http://www.w3.org/2000/svg"
 width="1280.000000pt" height="1280.000000pt" viewBox="0 0 1280.000000 1280.000000"
 preserveAspectRatio="xMidYMid meet">
<g transform="translate(0.000000,1080.000000) scale(0.100000,-0.100000)"
fill="#000000" stroke="none">
<path d="M2980 7434 c-140 -30 -268 -118 -343 -236 -41 -63 -63 -125 -79 -219
-20 -115 16 -267 88 -366 19 -27 41 -58 50 -71 23 -32 11 -38 -39 -18 -80 30
-153 37 -231 21 -113 -24 -208 -98 -393 -309 -124 -141 -166 -208 -224 -355
-118 -302 -191 -671 -193 -976 l-2 -190 -72 -170 c-63 -149 -100 -268 -302
-975 l-231 -805 -295 -576 c-320 -626 -319 -626 -265 -672 16 -13 127 -77 247
-142 234 -126 275 -139 314 -99 47 47 671 1164 927 1659 290 560 298 575 312
575 5 0 140 -165 300 -366 241 -303 291 -371 291 -397 1 -18 18 -360 39 -762
25 -483 41 -738 49 -752 7 -13 22 -28 34 -34 28 -15 518 -32 552 -19 14 5 33
21 43 37 17 26 18 79 18 978 l0 950 -328 502 -329 503 92 382 c120 505 108
461 129 455 11 -2 95 -59 188 -126 l170 -121 313 -115 c172 -63 315 -117 317
-119 3 -2 19 -55 38 -117 264 -890 993 -1520 1914 -1656 156 -23 473 -23 632
0 590 87 1116 383 1485 837 172 213 309 460 393 710 17 52 35 100 39 107 4 6
144 62 312 123 168 62 314 117 325 123 11 5 95 64 188 130 92 65 173 117 180
114 7 -3 54 -180 111 -420 l99 -415 -30 -49 c-17 -26 -160 -246 -318 -488
-158 -242 -294 -456 -302 -475 -13 -29 -14 -162 -8 -972 7 -896 9 -940 27
-963 10 -13 31 -26 46 -29 15 -3 139 -2 275 3 283 10 295 13 310 87 6 35 77
1384 77 1475 0 32 31 74 291 400 159 200 296 365 303 367 7 2 126 -217 293
-540 184 -356 394 -741 610 -1118 315 -550 330 -575 367 -589 43 -16 38 -18
365 159 146 79 176 99 187 126 7 17 10 42 7 55 -4 13 -138 280 -298 594 l-292
570 -231 806 c-206 720 -239 825 -306 982 l-74 175 5 143 c10 274 -70 687
-196 1016 -52 136 -96 206 -217 344 -165 187 -289 291 -370 310 -70 16 -176
11 -243 -12 -34 -12 -65 -19 -68 -16 -3 4 16 34 42 69 84 111 121 228 112 358
-14 194 -116 355 -283 442 -70 37 -191 68 -261 68 -59 0 -201 -37 -257 -68
-69 -37 -185 -154 -218 -222 -105 -212 -66 -462 97 -625 72 -72 156 -118 260
-144 42 -11 79 -22 82 -25 3 -3 -39 -53 -93 -111 -90 -96 -127 -145 -176 -234
l-17 -31 -390 0 c-301 0 -392 3 -398 13 -4 6 -29 58 -54 114 -179 392 -503
758 -879 993 -262 164 -599 285 -925 332 -117 17 -483 17 -600 0 -138 -20
-307 -60 -440 -103 -142 -47 -404 -174 -530 -256 -332 -218 -626 -547 -804
-902 l-41 -81 -433 2 -432 3 -36 68 c-22 43 -72 107 -138 177 -57 61 -101 116
-98 123 2 7 37 20 78 29 107 25 175 64 255 143 85 85 126 164 150 287 16 80
16 93 1 175 -23 122 -65 202 -151 289 -81 81 -163 126 -271 149 -85 18 -140
18 -225 -1z m225 -79 c183 -48 316 -194 347 -380 40 -238 -139 -475 -389 -516
-187 -31 -388 70 -476 238 -95 183 -70 372 69 522 115 125 289 177 449 136z
m6557 -106 c212 -44 368 -234 368 -449 0 -126 -49 -238 -142 -327 -299 -282
-785 -72 -780 337 3 285 272 498 554 439z m-3109 -43 c38 -4 77 -11 87 -16 10
-6 31 -10 47 -10 83 0 409 -108 523 -173 14 -8 50 -25 80 -38 69 -30 293 -179
385 -256 91 -76 267 -254 319 -322 139 -183 296 -443 296 -491 0 -12 -9 -22
-24 -26 -55 -14 -70 -71 -67 -262 1 -152 -6 -183 -41 -179 -11 1 -22 -3 -25
-8 -2 -6 9 -11 24 -10 25 0 29 -5 40 -49 19 -75 32 -83 153 -96 58 -6 109 -16
115 -21 16 -16 19 -167 4 -185 -14 -16 -401 -214 -419 -214 -6 0 -14 10 -19
23 -8 21 -9 21 -31 -15 -24 -42 -40 -41 -40 0 0 21 -2 24 -10 12 -5 -8 -10
-29 -10 -46 0 -16 -7 -39 -15 -50 -15 -20 -19 -86 -6 -118 4 -10 2 -58 -5
-105 -6 -47 -10 -88 -8 -90 8 -9 17 10 25 55 10 54 13 59 29 49 13 -8 110
-211 110 -230 0 -7 19 -25 41 -41 42 -29 73 -33 114 -14 78 35 135 50 135 34
0 -13 -112 -259 -124 -273 -8 -9 -17 -27 -21 -40 -13 -43 -141 -236 -163 -246
-12 -5 -22 -17 -22 -26 0 -9 -19 -41 -42 -70 -51 -63 -232 -245 -308 -309
-134 -112 -394 -280 -436 -280 -11 0 -38 -13 -62 -30 -50 -33 -196 -85 -218
-76 -8 3 -12 2 -9 -4 3 -5 -3 -13 -13 -19 -31 -17 -273 -69 -392 -85 -131 -18
-376 -21 -435 -5 -22 5 -69 11 -105 13 -104 5 -224 32 -385 86 -175 60 -293
112 -301 134 -3 9 -18 16 -33 16 -64 0 -457 286 -483 352 -4 10 -16 18 -27 18
-31 0 -213 216 -306 364 -11 18 -32 47 -46 66 -51 68 -209 406 -209 448 0 12
-7 34 -16 48 -25 37 -7 46 51 26 28 -10 55 -21 61 -24 6 -4 30 -10 53 -14 65
-10 86 7 142 118 27 54 55 98 62 97 6 0 25 -27 40 -59 30 -63 74 -100 121
-100 14 0 26 2 26 4 0 19 -16 36 -34 36 -34 0 -84 36 -104 77 -37 72 -36 91 7
188 33 75 42 90 60 88 16 -2 21 3 21 21 0 24 -17 36 -51 36 -22 0 -314 144
-324 160 -4 6 -1 18 6 26 14 17 12 19 -18 28 -19 6 -23 3 -23 -13 0 -12 -2
-21 -4 -21 -2 0 -45 21 -96 46 l-93 45 7 67 c3 37 6 79 6 94 0 42 25 60 84 57
28 -1 58 1 66 5 8 3 33 5 55 3 l40 -3 2 84 c2 63 7 89 19 103 15 17 15 19 2
19 -38 0 -38 80 0 115 15 14 20 23 11 20 -24 -9 -39 37 -39 121 0 52 -5 82
-16 99 -13 20 -14 31 -5 57 15 41 117 212 151 252 15 17 41 52 58 78 18 26 38
51 45 55 7 4 17 18 22 30 18 39 144 163 160 157 9 -4 15 0 15 9 0 18 107 127
124 127 7 0 22 13 33 28 38 52 294 217 324 209 10 -3 26 5 39 20 12 14 47 36
78 50 31 13 69 31 84 39 14 8 33 14 42 14 9 0 27 7 39 15 50 32 395 114 510
120 26 2 51 5 54 9 7 6 338 0 436 -8z m-4042 -752 c24 -8 131 -42 236 -74 106
-33 201 -64 211 -69 10 -5 64 -59 121 -120 l103 -111 172 -357 172 -358 522
-263 c423 -213 522 -267 522 -283 0 -19 -166 -359 -175 -359 -7 0 -897 326
-943 345 -17 8 -127 82 -244 165 -116 84 -216 154 -223 156 -7 3 -50 -158
-128 -484 -64 -269 -117 -495 -117 -503 0 -8 148 -241 330 -519 l330 -505 0
-921 c0 -770 -2 -923 -14 -933 -17 -14 -470 -1 -484 14 -5 6 -26 345 -46 755
-20 410 -38 754 -39 765 -3 21 -673 865 -687 865 -4 0 -145 -267 -313 -592
-325 -629 -938 -1720 -969 -1726 -20 -4 -448 226 -448 241 0 6 130 265 289
576 l289 566 231 805 c215 749 237 819 316 1006 l85 201 -11 83 c-26 195 36
586 147 920 82 247 114 300 304 501 113 120 214 206 259 220 45 13 157 10 202
-7z m7736 -103 c86 -25 367 -303 458 -453 154 -256 299 -944 255 -1211 l-9
-57 86 -203 c80 -189 100 -253 318 -1012 l232 -810 287 -559 c158 -307 286
-565 284 -573 -4 -19 -417 -244 -442 -240 -33 4 -605 1019 -961 1707 -173 333
-319 605 -325 605 -6 0 -161 -189 -345 -419 -236 -295 -336 -428 -339 -450 -3
-17 -10 -132 -15 -256 -41 -876 -63 -1245 -76 -1256 -17 -13 -465 -29 -476
-17 -4 5 -11 420 -15 923 -6 745 -4 920 6 940 7 14 156 245 332 513 175 269
318 498 318 509 0 22 -228 979 -235 986 -2 2 -102 -65 -222 -150 -120 -86
-227 -160 -239 -166 -21 -11 -913 -340 -947 -350 -14 -4 -33 28 -102 172 -47
97 -85 182 -85 189 0 6 233 129 516 272 306 154 522 269 531 281 7 12 88 176
179 364 l165 343 107 114 107 113 130 41 c72 22 182 57 245 78 120 40 212 51
277 32z m-6121 -456 c3 -8 -10 -63 -30 -122 -19 -59 -47 -155 -61 -212 -13
-58 -28 -108 -32 -112 -10 -10 -328 -42 -373 -37 l-35 3 -112 225 c-61 124
-112 235 -112 248 l-1 22 375 0 c321 0 376 -2 381 -15z m157 -251 c3 -83 2
-155 -1 -161 -4 -6 -34 -12 -67 -14 l-60 -4 3 35 c3 47 31 130 44 130 5 0 7
12 4 28 -7 31 49 161 63 146 5 -5 11 -77 14 -160z m4912 147 c5 -9 -202 -448
-225 -476 -8 -9 -30 -15 -59 -15 -61 1 -300 26 -307 33 -3 3 -19 70 -35 149
-15 79 -39 178 -52 220 -17 54 -21 80 -14 87 14 14 683 15 692 2z m-839 -38
c8 -21 18 -51 21 -68 2 -16 13 -50 23 -75 10 -25 24 -74 30 -110 7 -36 17 -82
23 -103 12 -41 -1 -61 -33 -52 -8 2 -40 7 -70 10 -62 7 -72 13 -72 46 -2 90 5
375 9 382 2 4 15 7 28 7 19 0 28 -9 41 -37z m-4368 -440 c2 -23 -2 -51 -8 -63
-10 -19 -13 -19 -100 25 -50 25 -90 49 -90 54 0 6 19 12 43 15 153 20 151 21
155 -31z m4751 -79 c18 -4 30 -12 28 -18 -5 -17 -126 -78 -143 -72 -9 4 -14
20 -14 51 l0 45 49 0 c27 0 63 -3 80 -6z"/>
<path d="M6080 7064 c-13 -34 -13 -41 5 -48 16 -6 19 -1 29 47 8 36 -20 38
-34 1z"/>
<path d="M6265 7070 c-8 -14 3 -30 21 -30 8 0 14 9 14 20 0 21 -24 28 -35 10z"/>
<path d="M6510 7060 c0 -11 6 -20 14 -20 21 0 31 21 15 31 -22 14 -29 11 -29
-11z"/>
<path d="M6655 7057 c9 -27 23 -43 31 -35 10 10 -5 46 -22 52 -12 5 -14 1 -9
-17z"/>
<path d="M6866 7017 c3 -10 9 -15 12 -12 3 3 0 11 -7 18 -10 9 -11 8 -5 -6z"/>
<path d="M5910 7010 c0 -5 7 -10 15 -10 8 0 15 5 15 10 0 6 -7 10 -15 10 -8 0
-15 -4 -15 -10z"/>
<path d="M5677 6972 c-26 -27 -36 -49 -17 -37 10 6 53 65 48 65 -3 0 -16 -13
-31 -28z"/>
<path d="M6045 6967 c-19 -15 -49 -112 -39 -128 3 -5 21 -9 41 -9 35 0 35 1
19 19 -15 17 -16 22 -1 62 8 24 17 48 18 53 4 15 -18 17 -38 3z"/>
<path d="M6258 6944 c-53 -28 -26 -74 52 -88 l35 -6 -32 20 c-34 21 -40 38
-23 71 13 23 5 23 -32 3z"/>
<path d="M6524 6938 c20 -29 20 -34 -4 -58 -16 -16 -17 -20 -4 -20 18 0 56 19
66 33 10 16 -2 37 -33 52 -38 20 -43 19 -25 -7z"/>
<path d="M6690 6943 c0 -5 6 -27 13 -51 12 -41 33 -66 48 -57 7 5 -11 83 -24
103 -9 13 -37 17 -37 5z"/>
<path d="M5480 6895 c-10 -13 -9 -15 9 -15 11 0 21 4 21 9 0 18 -18 21 -30 6z"/>
<path d="M5724 6875 c-17 -12 -18 -14 -2 -20 9 -4 24 -5 32 -3 12 2 12 6 2 20
-11 15 -15 16 -32 3z"/>
<path d="M6950 6848 c26 -58 44 -61 23 -4 -10 25 -23 46 -30 46 -8 0 -7 -12 7
-42z"/>
<path d="M5552 6799 c-43 -62 -51 -84 -30 -77 12 4 86 115 87 131 2 21 -20 1
-57 -54z"/>
<path d="M5815 6847 c10 -8 15 -19 11 -25 -9 -15 -1 -15 25 -2 33 18 23 40
-18 40 -33 0 -35 -1 -18 -13z"/>
<path d="M5250 6794 c0 -8 5 -12 10 -9 6 4 8 11 5 16 -9 14 -15 11 -15 -7z"/>
<path d="M5355 6728 c-36 -54 -34 -75 4 -63 16 5 19 10 12 23 -6 11 -3 28 10
54 27 54 16 47 -26 -14z"/>
<path d="M5964 6735 c-9 -14 -23 -25 -31 -25 -13 0 -13 -3 -3 -15 10 -12 9
-32 -5 -100 -20 -94 -16 -109 33 -119 38 -8 115 7 120 23 3 10 -3 12 -24 8
-71 -13 -86 17 -63 125 13 62 24 78 53 79 21 0 21 0 -1 9 -13 5 -23 16 -23 25
0 24 -38 18 -56 -10z"/>
<path d="M6286 6725 c-97 -34 -131 -120 -68 -176 44 -39 101 -52 212 -47 136
6 199 43 200 117 0 58 -90 122 -171 121 -18 -1 -14 -4 16 -15 109 -38 114
-161 9 -195 -51 -17 -148 -8 -182 17 -35 26 -54 66 -46 97 8 34 50 74 88 85
28 8 29 9 6 10 -14 0 -43 -6 -64 -14z"/>
<path d="M6745 6698 c3 -13 13 -66 23 -118 17 -91 19 -95 45 -98 32 -4 33 0
11 97 -16 69 -16 73 2 93 19 20 19 21 -2 14 -14 -4 -26 0 -39 14 -25 28 -47
26 -40 -2z"/>
<path d="M5753 6673 c9 -2 23 -2 30 0 6 3 -1 5 -18 5 -16 0 -22 -2 -12 -5z"/>
<path d="M7029 6619 c10 -24 27 -73 37 -107 15 -58 35 -84 50 -69 4 3 -6 42
-21 86 -14 44 -24 85 -20 91 3 5 -2 10 -11 10 -10 0 -26 8 -36 17 -18 16 -18
14 1 -28z"/>
<path d="M5598 6612 c-43 -39 -33 -57 33 -65 29 -4 59 -13 67 -21 13 -13 13
-18 -2 -41 -21 -32 -64 -51 -135 -61 -28 -4 -54 -11 -58 -17 -10 -17 100 -1
156 23 52 23 111 79 111 105 0 20 -32 35 -77 35 -54 0 -79 19 -64 48 16 29 8
28 -31 -6z"/>
<path d="M5092 6588 c-13 -13 -16 -38 -4 -37 4 0 15 3 24 7 14 6 14 10 4 24
-10 13 -15 15 -24 6z"/>
<path d="M5444 6592 c-7 -4 -27 -41 -45 -82 -18 -41 -41 -87 -51 -101 -14 -21
-15 -29 -5 -42 7 -9 17 -13 23 -9 7 4 31 57 55 117 24 61 46 113 47 118 5 9
-9 9 -24 -1z"/>
<path d="M5189 6437 c-65 -136 -53 -175 40 -127 48 24 53 32 12 20 -15 -4 -34
-4 -41 0 -18 11 -8 63 23 133 15 31 22 57 16 57 -5 0 -28 -37 -50 -83z"/>
<path d="M5902 6403 c-7 -3 -19 -20 -26 -38 -12 -27 -22 -35 -50 -41 -48 -8
-48 -34 -1 -34 19 0 35 -3 35 -7 -1 -5 -9 -65 -19 -135 -10 -69 -16 -140 -13
-157 6 -46 44 -71 106 -71 75 0 96 8 96 36 0 21 -4 23 -44 22 -83 -1 -92 22
-71 185 9 67 20 126 26 133 5 6 36 15 69 18 45 5 60 11 60 23 0 13 -9 15 -59
9 -63 -7 -75 1 -64 43 4 16 1 21 -13 20 -11 0 -25 -3 -32 -6z"/>
<path d="M6320 6361 c-14 -5 -44 -18 -67 -29 -106 -55 -144 -195 -78 -294 98
-148 404 -135 483 22 58 115 -8 256 -139 295 -55 16 -156 19 -199 6z m177 -42
c108 -52 127 -214 34 -292 -119 -99 -300 -19 -301 134 0 137 140 220 267 158z"/>
<path d="M6803 6327 c3 -7 12 -85 21 -173 25 -234 22 -221 57 -229 17 -4 35
-3 39 1 4 5 0 70 -10 144 -14 112 -15 140 -4 167 17 42 46 56 106 51 91 -9
125 -64 153 -248 24 -157 21 -150 55 -150 17 0 30 3 30 8 0 4 -12 71 -27 149
-25 133 -25 143 -10 166 25 38 69 43 125 15 62 -31 85 -79 117 -242 28 -141
30 -146 51 -146 20 0 18 27 -12 142 -39 154 -78 219 -156 259 -45 23 -111 25
-128 4 -18 -22 -44 -18 -71 11 -56 61 -171 84 -222 44 -32 -26 -34 -26 -52 10
-11 22 -23 30 -41 30 -17 0 -24 -4 -21 -13z"/>
<path d="M5593 6290 c-122 -29 -210 -155 -135 -194 15 -7 43 -17 62 -21 46 -9
70 -32 70 -64 0 -62 -63 -104 -152 -103 -48 1 -60 -3 -68 -19 -15 -26 6 -33
80 -26 116 10 210 91 210 179 0 44 -21 64 -84 78 -65 14 -86 27 -86 51 0 54
55 92 135 93 39 1 51 5 53 19 4 19 -26 21 -85 7z"/>
<path d="M4904 6245 c-12 -33 -14 -49 -6 -57 13 -13 50 -5 77 17 20 16 20 16
-2 12 -34 -7 -57 15 -49 46 10 42 -1 32 -20 -18z"/>
<path d="M5282 6193 c-5 -10 -24 -74 -43 -143 -31 -116 -37 -128 -80 -173 -40
-42 -51 -48 -80 -45 -54 5 -59 38 -27 161 15 56 30 110 33 120 5 11 2 17 -7
17 -10 0 -26 -36 -48 -107 -50 -162 -53 -235 -10 -248 28 -9 106 30 132 66 27
36 48 37 48 4 0 -14 3 -25 8 -25 21 1 31 24 51 120 11 58 30 137 41 175 11 39
20 76 20 82 0 19 -28 16 -38 -4z"/>
<path d="M4920 6071 c-19 -11 -44 -29 -55 -42 l-20 -23 30 21 c17 11 43 24 59
30 17 5 32 15 34 21 5 16 -7 14 -48 -7z"/>
<path d="M7600 6034 c0 -18 33 -108 48 -134 27 -43 86 -101 124 -121 40 -20
88 -25 88 -9 0 6 -12 10 -27 10 -16 0 -51 13 -79 29 -60 35 -116 114 -119 168
-2 30 -35 84 -35 57z"/>
<path d="M4560 5980 c0 -5 4 -10 9 -10 6 0 13 5 16 10 3 6 -1 10 -9 10 -9 0
-16 -4 -16 -10z"/>
<path d="M4771 5883 c-19 -48 -28 -116 -19 -150 7 -27 13 -33 36 -33 30 0 92
34 92 50 0 12 0 12 -39 -1 -27 -9 -35 -8 -51 6 -22 20 -27 76 -10 121 14 36 6
42 -9 7z"/>
<path d="M4550 5851 c0 -6 5 -13 10 -16 6 -3 10 1 10 9 0 9 -4 16 -10 16 -5 0
-10 -4 -10 -9z"/>
<path d="M5823 5800 c-17 -7 -24 -20 -29 -60 -7 -52 -8 -53 -69 -62 -14 -2
-21 -12 -23 -32 -3 -26 -1 -28 24 -23 56 10 55 12 48 -207 -7 -191 -6 -204 14
-249 24 -54 63 -77 129 -77 68 0 83 9 83 46 0 33 -1 34 -43 34 -54 0 -84 21
-96 68 -11 40 1 377 13 389 4 4 38 9 76 11 63 4 68 6 73 29 6 31 -9 37 -78 30
-66 -7 -75 2 -68 64 5 44 4 49 -13 48 -10 0 -29 -4 -41 -9z"/>
<path d="M6330 5711 c-87 -27 -156 -88 -194 -170 -30 -69 -29 -207 3 -278 26
-59 90 -124 148 -149 57 -26 194 -24 255 4 91 41 149 119 169 228 29 159 -55
318 -192 358 -55 17 -146 20 -189 7z m197 -88 c143 -115 111 -386 -52 -449
-165 -62 -310 128 -251 329 31 107 100 160 203 154 52 -2 69 -8 100 -34z"/>
<path d="M6864 5668 c4 -13 9 -135 12 -273 3 -137 7 -260 10 -273 4 -20 10
-23 42 -20 l37 3 0 210 c0 238 6 260 77 297 45 23 85 18 127 -18 47 -39 61
-91 67 -238 3 -72 7 -159 10 -193 5 -62 6 -63 35 -63 17 0 32 6 35 15 3 8 1
93 -4 190 -11 187 -7 223 30 262 33 35 97 32 135 -6 42 -42 53 -87 65 -283
l12 -178 24 0 25 0 -6 163 c-9 232 -36 316 -121 368 -52 32 -100 25 -149 -20
l-42 -40 -45 49 c-77 83 -166 91 -241 23 -43 -39 -55 -36 -61 12 -3 27 -7 30
-42 33 -36 3 -38 2 -32 -20z"/>
<path d="M5435 5652 c-74 -36 -115 -97 -115 -171 0 -52 29 -86 106 -122 74
-35 100 -71 90 -125 -13 -69 -92 -102 -176 -73 -34 12 -50 3 -50 -33 0 -41
149 -52 215 -15 60 34 87 87 82 164 -4 77 -24 102 -117 147 -97 47 -115 102
-54 163 24 24 31 25 94 21 66 -5 69 -4 75 20 8 32 4 35 -58 39 -37 3 -64 -2
-92 -15z"/>
<path d="M5154 5599 c-3 -6 -14 -88 -24 -182 -18 -182 -29 -219 -76 -256 -33
-26 -55 -27 -83 -3 -42 33 -46 135 -15 360 5 34 3 42 -10 42 -18 0 -22 -13
-36 -135 -15 -131 -13 -238 6 -283 30 -75 92 -80 155 -11 20 21 39 39 42 39 4
0 7 -16 7 -35 0 -31 3 -35 25 -35 l25 0 0 103 c0 56 7 170 15 252 8 83 15 151
15 153 0 8 -40 0 -46 -9z"/>
<path d="M7753 5556 c-56 -47 -69 -200 -28 -333 18 -61 76 -128 119 -139 43
-10 100 7 104 32 3 18 -2 20 -52 20 -47 -1 -59 3 -85 28 -36 35 -64 101 -59
142 3 33 9 34 136 20 l73 -8 -7 43 c-17 113 -75 202 -140 215 -24 4 -37 0 -61
-20z m102 -28 c41 -18 94 -145 68 -161 -13 -8 -155 14 -172 27 -19 15 -6 94
21 123 24 26 45 29 83 11z"/>
<path d="M4790 5533 c-33 -12 -81 -70 -101 -122 -13 -34 -23 -90 -26 -142 -9
-140 36 -211 116 -183 16 6 27 18 29 32 3 20 0 22 -22 16 -44 -11 -76 4 -92
41 -30 73 -9 225 39 281 15 17 38 29 63 33 30 5 40 11 42 29 3 22 -13 28 -48
15z"/>
<path d="M8076 5474 c-9 -22 -8 -24 9 -18 8 4 15 12 15 20 0 19 -16 18 -24 -2z"/>
<path d="M4576 5444 c-4 -9 -4 -19 -1 -22 2 -3 7 3 11 12 4 9 4 19 1 22 -2 3
-7 -3 -11 -12z"/>
<path d="M8033 5406 c4 -25 9 -106 13 -180 4 -75 11 -136 17 -136 5 0 6 44 0
118 -4 64 -7 142 -6 174 2 43 -2 58 -14 62 -13 6 -15 0 -10 -38z"/>
<path d="M4537 5394 c-4 -4 -7 -19 -6 -33 l0 -26 10 24 c10 26 8 47 -4 35z"/>
<path d="M4428 5273 c-27 -4 -41 -33 -15 -33 29 0 57 13 57 26 0 8 -3 13 -7
13 -5 -1 -20 -4 -35 -6z"/>
<path d="M8246 5124 c11 -30 25 -44 45 -44 24 0 25 19 2 27 -10 3 -26 13 -36
21 -16 15 -17 14 -11 -4z"/>
<path d="M5800 4969 c-33 -13 -41 -28 -34 -61 10 -49 -3 -68 -47 -68 -38 0
-39 -1 -39 -34 0 -34 1 -35 43 -38 l42 -3 12 -194 c10 -167 15 -200 35 -240
29 -58 72 -81 151 -81 57 0 57 0 57 30 0 28 -2 30 -41 30 -94 0 -107 29 -117
257 -8 211 -10 206 84 197 l64 -7 0 37 0 36 -68 0 c-40 0 -73 5 -80 12 -7 7
-12 39 -12 75 0 67 -3 70 -50 52z"/>
<path d="M7795 4848 c-65 -56 -105 -170 -105 -297 0 -146 54 -192 164 -140 39
18 64 44 53 56 -2 2 -20 -4 -40 -12 -50 -21 -71 -19 -102 8 -29 26 -46 107
-26 131 7 8 56 22 111 31 l99 18 7 43 c8 55 -11 143 -38 171 -32 34 -79 30
-123 -9z m110 -38 c10 -11 20 -42 23 -70 4 -45 2 -50 -20 -59 -40 -15 -155
-24 -162 -13 -11 18 34 120 61 142 33 26 75 26 98 0z"/>
<path d="M4894 4818 c3 -29 8 -84 11 -123 9 -107 25 -185 45 -224 48 -93 130
-123 176 -66 20 25 26 28 34 15 5 -8 10 -22 10 -31 0 -19 25 -43 38 -35 4 2 2
45 -5 95 -7 49 -19 161 -25 248 -13 152 -14 158 -35 161 -21 3 -23 0 -23 -50
0 -29 5 -112 12 -185 10 -119 10 -134 -6 -158 -26 -40 -57 -50 -95 -31 -58 31
-82 111 -97 334 -6 92 -8 102 -26 102 -17 0 -19 -5 -14 -52z"/>
<path d="M5390 4847 c-47 -17 -80 -68 -80 -124 0 -82 31 -122 142 -186 25 -15
56 -39 67 -53 27 -34 28 -95 3 -117 -25 -23 -87 -21 -139 3 l-43 19 0 -25 c0
-35 65 -63 147 -64 51 0 66 4 91 25 35 30 46 73 31 129 -14 53 -57 98 -141
147 -76 45 -98 70 -98 114 0 69 54 97 134 70 26 -9 50 -15 52 -13 2 3 5 15 6
28 2 18 -4 28 -23 37 -40 20 -110 24 -149 10z"/>
<path d="M7414 4850 c-24 -9 -94 -78 -94 -92 0 -20 -31 -5 -45 22 -21 41 -71
70 -119 70 -52 0 -120 -34 -152 -76 -15 -19 -30 -34 -35 -34 -4 0 -9 19 -11
43 -3 40 -4 42 -39 45 l-36 3 -6 -208 c-4 -114 -10 -243 -13 -285 l-7 -78 36
0 c20 0 39 5 43 11 3 6 12 93 19 194 11 167 15 188 38 228 58 98 166 116 218
35 19 -31 20 -43 15 -163 -4 -71 -9 -163 -12 -203 l-7 -73 29 7 c16 4 32 11
35 17 4 5 12 73 18 150 18 209 26 241 70 287 32 34 44 40 78 40 61 0 86 -33
91 -120 4 -61 -10 -227 -25 -302 -5 -23 -2 -28 15 -28 11 0 24 6 30 13 11 13
42 258 42 332 0 107 -47 176 -118 174 -20 0 -47 -4 -58 -9z"/>
<path d="M6309 4825 c-64 -21 -141 -92 -169 -157 -32 -75 -32 -192 -1 -265 26
-58 93 -126 147 -149 125 -52 297 -7 369 96 40 58 54 107 55 191 0 131 -42
209 -141 264 -44 24 -68 29 -134 32 -51 2 -97 -3 -126 -12z m190 -69 c39 -21
86 -77 102 -123 7 -21 13 -68 13 -104 0 -171 -139 -283 -277 -225 -69 28 -127
132 -127 226 0 93 57 197 125 226 40 18 129 17 164 0z"/>
<path d="M4613 4330 c-9 -13 -10 -27 -3 -42 5 -13 9 -17 9 -9 1 8 8 22 17 32
9 10 13 23 9 28 -9 16 -19 13 -32 -9z"/>
<path d="M4485 4310 c3 -5 11 -10 16 -10 6 0 7 5 4 10 -3 6 -11 10 -16 10 -6
0 -7 -4 -4 -10z"/>
<path d="M4531 4284 c14 -17 32 -19 27 -2 -2 6 -12 12 -22 14 -14 2 -15 0 -5
-12z"/>
<path d="M8020 4280 c-6 -11 -7 -20 -2 -20 10 0 32 21 32 32 0 16 -19 8 -30
-12z"/>
<path d="M4782 4268 c-27 -27 -1 -166 43 -224 8 -10 3 8 -10 41 -50 122 -23
178 68 140 30 -13 19 14 -15 35 -37 23 -68 26 -86 8z"/>
<path d="M7923 4128 c-23 -79 -45 -152 -49 -162 -5 -13 -4 -17 4 -13 6 4 25
51 43 105 17 53 38 109 46 125 9 18 11 37 6 58 -7 27 -13 14 -50 -113z"/>
<path d="M7729 4192 c-78 -50 -156 -179 -166 -276 -5 -49 -3 -55 19 -70 22
-14 29 -15 74 -1 27 8 60 24 74 36 20 17 21 19 5 14 -80 -30 -96 -30 -116 -6
-44 54 -19 84 106 130 76 27 102 42 112 61 16 32 17 112 1 128 -20 20 -61 14
-109 -16z m79 -24 c13 -13 16 -56 6 -82 -3 -8 -42 -27 -86 -42 -100 -33 -114
-25 -72 43 46 75 119 114 152 81z"/>
<path d="M4990 4198 c0 -36 57 -215 84 -263 52 -95 128 -136 203 -110 19 6 24
3 33 -19 5 -14 17 -26 26 -26 9 0 14 6 11 13 -10 26 -66 235 -78 289 -9 41
-18 59 -31 64 -11 3 -22 3 -25 0 -4 -3 8 -62 26 -130 19 -71 30 -133 26 -145
-9 -29 -50 -37 -91 -17 -50 23 -87 90 -119 213 -16 60 -32 116 -37 126 -10 19
-28 23 -28 5z"/>
<path d="M8234 4185 c-9 -22 1 -29 15 -11 8 10 9 16 1 21 -5 3 -13 -1 -16 -10z"/>
<path d="M8087 4131 c-4 -18 -7 -40 -7 -47 0 -18 34 -18 49 0 9 11 7 15 -8 19
-12 3 -21 15 -23 33 l-3 29 -8 -34z"/>
<path d="M5825 4138 c-2 -7 -6 -29 -7 -48 -3 -33 -5 -35 -38 -36 -19 0 -34 -3
-32 -7 1 -4 2 -14 2 -22 0 -10 10 -15 28 -15 15 0 32 -4 39 -8 6 -4 21 -65 32
-135 25 -153 38 -182 94 -208 52 -23 127 -26 127 -4 0 10 -10 15 -33 15 -36 0
-71 20 -87 50 -10 19 -39 202 -40 248 0 21 4 22 70 22 61 0 70 2 70 18 0 16
-12 20 -72 28 l-73 9 -9 53 c-8 49 -11 52 -38 52 -16 0 -31 -6 -33 -12z"/>
<path d="M7343 4105 c-18 -7 -52 -32 -77 -55 l-46 -42 -29 31 c-25 27 -36 31
-78 31 -54 0 -112 -24 -160 -64 -36 -30 -53 -27 -53 10 0 20 -5 24 -29 24 -28
0 -29 -2 -35 -57 -4 -32 -14 -118 -23 -191 -8 -73 -13 -136 -9 -139 3 -4 19
-2 34 3 26 9 28 16 47 129 23 134 29 149 79 193 63 55 148 54 175 -2 12 -26
11 -42 -8 -138 -12 -60 -24 -115 -28 -123 -8 -22 44 -19 55 3 5 9 22 70 37
136 23 102 32 124 62 157 42 46 100 68 138 51 40 -18 42 -55 8 -184 -29 -113
-28 -131 3 -110 13 7 56 142 74 228 11 52 2 100 -23 116 -19 12 -79 8 -114 -7z"/>
<path d="M5437 4089 c-34 -20 -40 -57 -17 -104 20 -42 49 -66 143 -119 87 -50
114 -104 62 -128 -24 -11 -67 -2 -144 29 -8 3 -12 0 -9 -8 6 -17 122 -58 163
-59 46 0 75 25 75 65 0 44 -46 90 -140 139 -107 56 -137 112 -79 145 23 13 31
13 70 -1 71 -24 74 -25 74 -4 0 38 -151 72 -198 45z"/>
<path d="M6355 4024 c-150 -38 -220 -118 -202 -230 32 -197 394 -236 496 -53
55 98 19 208 -84 255 -53 25 -165 39 -210 28z m156 -67 c110 -74 104 -223 -10
-284 -167 -88 -336 88 -234 243 40 62 179 85 244 41z"/>
<path d="M4875 3981 c52 -55 115 -89 115 -62 0 5 -16 15 -36 21 -20 7 -55 29
-78 48 l-41 36 40 -43z"/>
<path d="M4761 3911 c-8 -5 -11 -16 -7 -26 5 -15 7 -15 22 0 19 19 7 39 -15
26z"/>
<path d="M8090 3829 c0 -5 5 -7 10 -4 6 3 10 8 10 11 0 2 -4 4 -10 4 -5 0 -10
-5 -10 -11z"/>
<path d="M4931 3806 c-9 -11 -8 -22 3 -48 11 -26 15 -29 15 -12 1 30 25 47 53
39 33 -11 18 2 -24 19 -30 13 -38 13 -47 2z"/>
<path d="M7786 3747 c-14 -32 -38 -81 -51 -108 -14 -27 -23 -49 -20 -49 2 0
19 28 36 63 17 34 40 74 51 90 11 15 18 35 15 45 -3 11 -13 -3 -31 -41z"/>
<path d="M7930 3753 c0 -6 -3 -18 -6 -27 -4 -10 -1 -16 9 -16 24 0 31 20 13
38 -9 9 -16 11 -16 5z"/>
<path d="M7625 3727 l-30 -11 30 -6 c26 -5 30 -10 29 -38 -2 -40 10 -41 26 -3
24 58 3 80 -55 58z"/>
<path d="M5150 3716 c0 -11 57 -126 78 -158 43 -66 39 -41 -11 62 -26 55 -52
100 -58 100 -5 0 -9 -2 -9 -4z"/>
<path d="M5360 3646 c0 -2 14 -34 30 -71 34 -77 37 -100 13 -114 -15 -9 -13
-10 11 -11 16 0 38 -7 48 -17 10 -9 20 -14 23 -11 7 7 -82 210 -97 219 -14 9
-28 12 -28 5z"/>
<path d="M7462 3603 c-40 -51 -65 -102 -58 -119 6 -16 76 -20 76 -4 0 6 -6 10
-14 10 -32 0 -28 53 5 70 10 6 16 17 13 24 -3 8 -1 24 6 35 17 32 5 25 -28
-16z"/>
<path d="M7215 3591 l-40 -18 49 1 c69 1 75 -13 41 -98 -28 -71 -26 -97 5 -58
26 32 74 158 67 176 -9 22 -71 20 -122 -3z"/>
<path d="M5554 3576 c-19 -14 -19 -15 2 -43 11 -15 60 -49 108 -74 97 -50 120
-74 92 -95 -23 -17 -4 -27 34 -19 63 14 32 52 -90 113 -81 40 -95 51 -98 74
-4 35 21 42 84 23 59 -18 61 -18 47 -4 -11 11 -108 39 -139 39 -11 0 -29 -6
-40 -14z"/>
<path d="M5903 3571 c6 -24 -14 -44 -37 -35 -9 3 -16 2 -16 -3 0 -5 15 -13 32
-18 30 -9 34 -16 55 -90 15 -54 30 -87 46 -101 24 -21 113 -42 125 -30 3 3 -6
6 -21 6 -54 0 -97 76 -97 171 l0 31 55 -7 c34 -4 55 -3 55 3 0 6 -27 13 -60
17 -57 7 -60 9 -68 38 -7 27 -14 33 -41 35 -30 3 -33 1 -28 -17z"/>
<path d="M4935 3550 c4 -6 11 -8 16 -5 14 9 11 15 -7 15 -8 0 -12 -5 -9 -10z"/>
<path d="M6976 3549 c-21 -5 -61 -21 -88 -36 -47 -25 -51 -26 -63 -10 -14 20
-44 23 -50 5 -3 -7 -13 -57 -23 -111 l-19 -98 26 3 c23 3 28 11 46 76 15 56
28 81 52 102 39 35 108 56 143 43 33 -11 36 -42 14 -115 -9 -32 -14 -61 -11
-64 16 -16 37 11 68 87 19 46 35 86 37 90 3 6 -72 40 -86 38 -4 -1 -25 -5 -46
-10z"/>
<path d="M6283 3484 c-46 -17 -93 -64 -93 -93 0 -44 63 -94 135 -106 l40 -7
-42 22 c-76 39 -82 111 -13 158 31 21 44 23 113 20 74 -3 81 -5 108 -36 16
-18 29 -43 29 -56 0 -31 -34 -73 -74 -91 l-31 -15 35 6 c59 11 109 42 128 80
15 32 15 38 2 62 -29 50 -74 67 -190 69 -75 2 -117 -2 -147 -13z"/>
<path d="M5110 3453 c0 -5 4 -13 8 -20 6 -9 11 -7 20 7 11 17 10 20 -8 20 -11
0 -20 -3 -20 -7z"/>
<path d="M7757 3453 c-4 -3 -7 -11 -7 -17 0 -6 5 -5 12 2 6 6 9 14 7 17 -3 3
-9 2 -12 -2z"/>
<path d="M7477 3383 c-3 -5 -1 -17 3 -28 7 -19 7 -19 18 1 11 21 7 34 -9 34
-4 0 -10 -3 -12 -7z"/>
<path d="M5340 3365 c0 -10 50 -85 57 -85 5 0 -35 69 -49 85 -4 5 -8 5 -8 0z"/>
<path d="M5548 3268 c12 -20 22 -42 22 -49 0 -8 11 -19 25 -26 33 -15 32 -8
-7 51 -39 58 -74 79 -40 24z"/>
<path d="M7277 3262 c-30 -32 -35 -55 -10 -50 9 2 17 13 18 26 1 13 8 28 16
32 7 5 11 11 8 14 -3 3 -18 -7 -32 -22z"/>
<path d="M7131 3252 c9 -14 8 -26 -6 -51 -25 -49 -11 -49 24 0 39 53 39 69 1
69 -27 0 -29 -2 -19 -18z"/>
<path d="M5270 3240 c0 -5 5 -10 11 -10 5 0 7 5 4 10 -3 6 -8 10 -11 10 -2 0
-4 -4 -4 -10z"/>
<path d="M5690 3240 c0 -5 9 -14 19 -19 15 -9 20 -7 24 9 4 16 0 20 -19 20
-13 0 -24 -4 -24 -10z"/>
<path d="M5994 3226 c-3 -9 -2 -22 4 -29 5 -6 15 -29 21 -50 11 -32 45 -66 56
-55 6 5 -16 91 -30 118 -16 30 -43 38 -51 16z"/>
<path d="M6910 3205 c12 -14 11 -29 -5 -67 -15 -37 25 -17 45 22 27 54 26 60
-16 60 -31 0 -35 -2 -24 -15z"/>
<path d="M6713 3192 c-12 -8 -39 -100 -31 -108 13 -12 37 12 53 51 20 54 11
78 -22 57z"/>
<path d="M7340 3169 c0 -5 5 -7 10 -4 6 3 10 8 10 11 0 2 -4 4 -10 4 -5 0 -10
-5 -10 -11z"/>
<path d="M6258 3154 c-34 -18 -36 -38 -6 -58 33 -23 51 -21 38 4 -12 22 0 54
22 63 7 3 4 6 -7 6 -11 0 -32 -7 -47 -15z"/>
<path d="M6513 3152 c20 -22 22 -43 5 -60 -16 -16 -3 -15 32 3 17 9 30 22 30
30 0 18 -38 45 -64 45 -18 0 -18 -1 -3 -18z"/>
<path d="M5870 3135 c0 -9 9 -15 21 -15 18 0 19 2 9 15 -7 8 -16 15 -21 15 -5
0 -9 -7 -9 -15z"/>
<path d="M5686 3075 c9 -14 19 -24 21 -21 6 6 -20 46 -30 46 -4 0 0 -11 9 -25z"/>
<path d="M7030 3076 c0 -8 -3 -23 -6 -33 -4 -14 -1 -13 15 6 25 27 27 41 6 41
-8 0 -15 -6 -15 -14z"/>
<path d="M7145 3080 c-3 -5 -1 -10 4 -10 6 0 11 5 11 10 0 6 -2 10 -4 10 -3 0
-8 -4 -11 -10z"/>
<path d="M5808 3063 c7 -3 16 -2 19 1 4 3 -2 6 -13 5 -11 0 -14 -3 -6 -6z"/>
<path d="M6060 3043 c0 -5 9 -23 20 -40 21 -35 45 -45 36 -15 -2 9 -7 27 -11
40 -6 20 -45 33 -45 15z"/>
<path d="M6837 3023 c-7 -38 1 -43 24 -14 24 29 24 41 0 41 -12 0 -20 -9 -24
-27z"/>
<path d="M6663 3022 c-6 -4 -13 -17 -17 -29 -10 -32 17 -30 32 2 12 25 4 39
-15 27z"/>
<path d="M6507 2990 c6 -21 28 -27 38 -11 3 6 -3 15 -14 20 -27 15 -30 14 -24
-9z"/>
<path d="M6267 2994 c-9 -10 2 -24 19 -24 8 0 14 7 14 15 0 15 -21 21 -33 9z"/>
<path d="M6945 2960 c-3 -5 -1 -10 4 -10 6 0 11 5 11 10 0 6 -2 10 -4 10 -3 0
-8 -4 -11 -10z"/>
<path d="M6122 2923 c2 -9 9 -18 16 -21 18 -6 15 25 -4 32 -11 4 -14 1 -12
-11z"/>
<path d="M6780 2924 c0 -8 5 -12 10 -9 6 3 10 10 10 16 0 5 -4 9 -10 9 -5 0
-10 -7 -10 -16z"/>
<path d="M6615 2909 c-4 -6 -5 -13 -2 -16 7 -7 27 6 27 18 0 12 -17 12 -25 -2z"/>
</g>
</svg>
