<svg id="server1" xmlns="http://www.w3.org/2000/svg" width="225" height="225" viewBox="0 0 225 225">
  <defs>
    <style>
      .cls-1, .cls-4 {
        fill: none;
      }

      .cls-1, .cls-2, .cls-4 {
        stroke: #020202;
        stroke-width: 5px;
      }

      .cls-1, .cls-3 {
        fill-rule: evenodd;
      }

      .cls-2, .cls-3 {
        fill: #020202;
      }
    </style>
  </defs>
  <path id="Rounded_Rectangle_1" data-name="Rounded Rectangle 1" class="cls-1" d="M45,144.426H183a10,10,0,0,1,10,10V183a10,10,0,0,1-10,10H45a10,10,0,0,1-10-10V154.426A10,10,0,0,1,45,144.426Z"/>
  <circle class="cls-2" cx="61.281" cy="168.688" r="9.438"/>
  <path id="Rounded_Rectangle_2" data-name="Rounded Rectangle 2" class="cls-3" d="M162.962,150.813H164a5,5,0,0,1,5,5V181a5,5,0,0,1-5,5h-1.038a5,5,0,0,1-5-5V155.813A5,5,0,0,1,162.962,150.813Z"/>
  <path id="Rounded_Rectangle_2_copy" data-name="Rounded Rectangle 2 copy" class="cls-3" d="M149.494,150.813h1.012a5,5,0,0,1,5,5V181a5,5,0,0,1-5,5h-1.012a5,5,0,0,1-5-5V155.813A5,5,0,0,1,149.494,150.813Z"/>
  <path id="Rounded_Rectangle_2_copy_2" data-name="Rounded Rectangle 2 copy 2" class="cls-3" d="M136,150.813h1.038a5,5,0,0,1,5,5V181a5,5,0,0,1-5,5H136a5,5,0,0,1-5-5V155.813A5,5,0,0,1,136,150.813Z"/>
  <path id="Rounded_Rectangle_1-2" data-name="Rounded Rectangle 1" class="cls-1" d="M45,88H183a10,10,0,0,1,10,10v28.574a10,10,0,0,1-10,10H45a10,10,0,0,1-10-10V98A10,10,0,0,1,45,88Z"/>
  <circle class="cls-2" cx="61.281" cy="112.109" r="9.438"/>
  <path id="Rounded_Rectangle_2-2" data-name="Rounded Rectangle 2" class="cls-3" d="M162.962,95.063H164a5,5,0,0,1,5,5v25.156a5,5,0,0,1-5,5h-1.038a5,5,0,0,1-5-5V100.063A5,5,0,0,1,162.962,95.063Z"/>
  <path id="Rounded_Rectangle_2_copy-2" data-name="Rounded Rectangle 2 copy" class="cls-3" d="M149.494,95.063h1.012a5,5,0,0,1,5,5v25.156a5,5,0,0,1-5,5h-1.012a5,5,0,0,1-5-5V100.063A5,5,0,0,1,149.494,95.063Z"/>
  <path id="Rounded_Rectangle_2_copy_2-2" data-name="Rounded Rectangle 2 copy 2" class="cls-3" d="M136,95.063h1.038a5,5,0,0,1,5,5v25.156a5,5,0,0,1-5,5H136a5,5,0,0,1-5-5V100.063A5,5,0,0,1,136,95.063Z"/>
  <rect id="Rounded_Rectangle_1-3" data-name="Rounded Rectangle 1" class="cls-4" x="35" y="32" width="158" height="49" rx="10" ry="10"/>
  <circle class="cls-2" cx="61.281" cy="56.313" r="9.438"/>
  <path id="Rounded_Rectangle_2-3" data-name="Rounded Rectangle 2" class="cls-3" d="M162.962,39H164a5,5,0,0,1,5,5V69.188a5,5,0,0,1-5,5h-1.038a5,5,0,0,1-5-5V44A5,5,0,0,1,162.962,39Z"/>
  <path id="Rounded_Rectangle_2_copy-3" data-name="Rounded Rectangle 2 copy" class="cls-3" d="M149.494,39h1.012a5,5,0,0,1,5,5V69.188a5,5,0,0,1-5,5h-1.012a5,5,0,0,1-5-5V44A5,5,0,0,1,149.494,39Z"/>
  <path id="Rounded_Rectangle_2_copy_2-3" data-name="Rounded Rectangle 2 copy 2" class="cls-3" d="M136,39h1.038a5,5,0,0,1,5,5V69.188a5,5,0,0,1-5,5H136a5,5,0,0,1-5-5V44A5,5,0,0,1,136,39Z"/>
</svg>
